<?xml version="1.0" encoding="utf-8"?>
<!-- Generator: Adobe Illustrator 19.2.1, SVG Export Plug-In . SVG Version: 6.00 Build 0)  -->
<svg version="1.1" id="Layer_1" xmlns="http://www.w3.org/2000/svg" xmlns:xlink="http://www.w3.org/1999/xlink" x="0px" y="0px"
	 viewBox="0 0 130 130" style="enable-background:new 0 0 130 130;" xml:space="preserve">
<style type="text/css">
	.st0{fill:none;stroke:#FFFFFF;stroke-width:4;stroke-miterlimit:10;}
	.st1{fill:none;stroke:#FFFFFF;stroke-width:5;stroke-miterlimit:10;}
	.st2{fill:#6FC5A0;stroke:#6FC5A0;stroke-width:3;stroke-miterlimit:10;}
</style>
<g>
	<path class="st0" d="M88.8,22.1c1.5,1,2.5,2.4,1.8,4.3c-0.7,2-2.4,2.3-4.3,2.3c-3,0-6.1,0-9.4,0c0,3.3,0,6.5,0,9.6
		c0,0.4,0.4,0.8,0.8,1c1.3,1.1,2.6,2.2,4.5,3.8c3.8,0,8.4,0,13.4,0c0-2.4,0-4.7,0-7c0-3.9,0.4-4.3,4.2-4.1c0.5,0,1.1,0.1,1.7,0.2
		c0,10.6,0,21.1,0,32c-1.3,0-2.8,0.3-3.9-0.1c-0.8-0.3-1.8-1.6-1.9-2.5c-0.2-2.8-0.1-5.6-0.1-8.7c-4.7,0-9.2,0-13.7,0.1
		c-0.4,0-0.9,0.7-1.2,1.2c-2.1,4.4-6.1,2.4-9.3,2.8c-2.2,0.3-4-0.6-5.1-2.8c-0.3-0.6-1.2-1.2-1.8-1.2c-2.9-0.1-5.7-0.1-8.6,0
		c-3.4,0.1-5.1,1.8-5.1,5.3c-0.1,3.6,0,7.2,0,10.9c-3.6,0-6.9,0-10.3,0c0-5.5-0.7-10.9,0.2-16.2c0.9-6,6.6-9.5,13.5-9.7
		c3.9-0.1,7.8,0,11,0c1.8-1.8,3.2-3.2,5-5c0-2.5,0-5.8,0-9.6c-3.1,0-6.2,0-9.2,0c-1,0-2.1-0.1-3-0.6c-2.2-1.2-2-3.6,0.3-5.9
		C68.4,22.1,78.6,22.1,88.8,22.1z"/>
	<circle class="st1" cx="65" cy="65" r="59.5"/>
	<polygon class="st2" points="54.7,105.7 34.1,107.6 31.6,86 56.9,86 	"/>
	<polygon class="st0" points="54.5,107.6 34.1,107.6 30.2,74.3 58.2,74.3 	"/>
</g>
</svg>
