<?xml version="1.0" encoding="utf-8"?>
<!-- Generator: Adobe Illustrator 19.2.1, SVG Export Plug-In . SVG Version: 6.00 Build 0)  -->
<svg version="1.1" id="Layer_1" xmlns="http://www.w3.org/2000/svg" xmlns:xlink="http://www.w3.org/1999/xlink" x="0px" y="0px"
	 viewBox="0 0 130 130" style="enable-background:new 0 0 130 130;" xml:space="preserve">
<style type="text/css">
	.st0{fill:none;stroke:#FFFFFF;stroke-width:5;stroke-miterlimit:10;}
	.st1{fill:#FFFFFF;stroke:#FFFFFF;stroke-miterlimit:10;}
	.st2{fill:#6FC5A0;stroke:#6FC5A0;stroke-miterlimit:10;}
</style>
<circle class="st0" cx="65" cy="65" r="60"/>
<path class="st1" d="M103.3,59.3c-2.8-3.5-5.5-7.1-8.3-10.6c-0.2-0.3-0.3-0.5-0.3-0.9c0.1-1.7,0.3-3.4,0.2-5.1
	c-0.1-2.7-0.9-5.4-2.2-8c-0.4-0.8-0.9-1.6-1.3-2.4c-1-1.3-2-2.5-2.9-3.8c-0.4-0.4-0.9-0.8-1.3-1.2c-1.8-1.5-3.7-2.8-5.8-3.8
	c-2.1-1-4.3-1.6-6.5-1.8c-3.2-0.3-6.3,0.2-9.1,1.6c-1.9,1-3.6,2.2-4.9,3.8c-1.3,1.5-2.3,3.3-2.9,5.2c-1.1,3.1-1.3,6.3-0.7,9.7
	c0.4,2.5,1.3,4.9,2.6,7.2c0.1,0.1,0.1,0.3,0,0.5c-0.8,1.7-0.5,3.3,0.8,5c1.6,2.1,3.2,4.1,4.8,6.2c0.2,0.2,0.3,0.4,0.5,0.7
	c-0.4,0-0.6,0.1-0.9,0.1c-2.8-0.2-5.7-0.3-8.5-0.6c-2.3-0.3-4.7-0.8-7.1-1.2c-0.5-0.1-1.1-0.3-1.6-0.5c-0.4-0.2-0.7-0.3-0.7-0.9
	c-0.1-0.9-0.5-1.8-1.4-2.2c-0.5-0.2-1-0.4-1.6-0.5c-1.7-0.3-2.7,0.5-2.8,2.2c-0.1,2.3-0.2,4.6-0.3,6.8c0,1,0.1,2,0.1,3
	c0.3,0.4,0.6,0.8,1,1.2c0.9,0.3,1.8,0.5,2.7,0.8c0.2,0,0.3,0,0.5-0.1c0.9-0.3,1.4-1,1.5-2.2c0.9,0.1,1.9,0,2.8,0.2
	c2.7,0.7,5.4,1.4,8,2.2c2.6,0.8,5.2,1.5,7.7,2.4c3.6,1.3,7.1,2.7,10.7,4.2c1.1,0.5,2.2,1.1,3.2,2.1c0.5,0.5,1.3,0.9,2,1.2
	c1.5,0.6,2.8,0.1,3.9-0.7c5.5-4.3,10.9-8.5,16.3-12.8c0.6-0.5,1.2-1.1,1.8-1.6C104.7,63.5,104.6,60.9,103.3,59.3z M62.8,29.5
	c5.3-6.4,13.2-5.8,18.7-2.9c8.4,4.5,11.2,13,10.6,18.5c-0.2-0.2-0.3-0.4-0.5-0.6c-2.3-2.9-4.6-5.9-6.9-8.8c-1.6-2-4.2-2.6-5.9-1.2
	C73.4,38.8,68,43,62.5,47.3c-0.2,0.1-0.4,0.3-0.6,0.4C58.6,41.4,59,34.1,62.8,29.5z M62.4,52.7c-0.3-0.5-0.3-1,0.1-1.4
	c0.1-0.1,0.2-0.2,0.4-0.3c5.9-4.6,11.8-9.2,17.7-13.9c1-0.8,1.7-0.7,2.7,0.6c0.1,0.1,0.2,0.3,0.3,0.4C76.8,43.4,70.1,48.7,63.3,54
	C63,53.5,62.6,53.2,62.4,52.7z M100.7,63c-5.8,4.5-11.6,9.1-17.4,13.7c-1,0.8-1.4,0.8-2.4-0.2c-1.4-1.4-3-2.2-4.7-2.9
	c-3.8-1.5-7.5-3-11.3-4.3c-2.3-0.8-4.6-1.5-6.9-2.2c-2.5-0.8-5.1-1.6-7.6-2.2c-1.4-0.3-3-0.6-4.3-0.1c-0.8,0.3-1.4,0.7-1.7,1.5
	c0,0.1-0.1,0.3-0.2,0.5c0.1-2.8,0.2-5.5,0.3-8.1c0,0,0.1,0.1,0.1,0.2c0.2,1.3,0.9,2.2,2,2.7c0.9,0.5,1.9,0.9,2.9,1.1
	c1.8,0.4,3.7,0.8,5.5,1c3.4,0.4,6.7,0.7,10,0.9c1.4,0.1,2.8,0,3.8-0.9c0.7-0.6,0.8-1.5,0.2-2.3c-0.3-0.5-0.7-1.1-1.1-1.6
	c-0.9-1.1-1.8-2.2-2.7-3.4c6.7-5.3,13.4-10.5,20.2-15.8c0.1,0.2,0.3,0.4,0.4,0.6c5,6.4,10,12.8,15,19.1
	C101.7,61.4,101.8,62.2,100.7,63z"/>
<g>
	<path class="st2" d="M43.7,104.3c-6.3,0-11.4-5.1-11.5-11.3c0-2.2,0.8-4.1,1.7-6c2.4-4.9,5.6-9.3,9-13.6c0.5-0.7,1.1-0.7,1.6,0
		c3.7,4.7,7.1,9.6,9.7,15c3.3,7.1-1.7,14.9-9,15.8C44.7,104.3,44.2,104.3,43.7,104.3z M43.8,75.1c-3.6,4.9-7.2,9.6-9.3,15.1
		c-0.2,0.6-0.4,1.3-0.5,2c-0.6,6.5,5.6,11.7,12,10.2c5.4-1.3,9.3-7.4,6.6-12.9c-1-2.2-2.2-4.4-3.5-6.4
		C47.5,80.4,45.7,77.9,43.8,75.1z"/>
	<path class="st2" d="M44,99.6c-3.8-0.2-7-3.4-7.2-7.2c0-0.6,0.1-1.2,0.8-1.2c0.7-0.1,0.9,0.4,1,1.1c0.4,3.4,2.3,5.3,5.7,5.6
		c0.6,0.1,1,0.3,1,0.9C45.4,99.4,44.9,99.6,44,99.6z"/>
</g>
</svg>
