<?xml version="1.0" encoding="utf-8"?>
<!-- Generator: Adobe Illustrator 19.2.1, SVG Export Plug-In . SVG Version: 6.00 Build 0)  -->
<svg version="1.1" id="Layer_1" xmlns="http://www.w3.org/2000/svg" xmlns:xlink="http://www.w3.org/1999/xlink" x="0px" y="0px"
	 viewBox="0 0 130 130" style="enable-background:new 0 0 130 130;" xml:space="preserve">
<style type="text/css">
	.st0{fill:none;stroke:#FFFFFF;stroke-width:5;stroke-miterlimit:10;}
	.st1{fill:#6FC5A0;stroke:#6FC5A0;stroke-width:2;stroke-miterlimit:10;}
	.st2{fill:none;stroke:#FFFFFF;stroke-width:4;stroke-miterlimit:10;}
</style>
<circle class="st0" cx="65" cy="65" r="60.8"/>
<g>
	<g>
		<path class="st1" d="M65,109.9c-7.6,0-13.9-6.1-14-13.7c0-2.6,1-5,2.1-7.3C56,83,59.9,77.6,64,72.4c0.6-0.8,1.3-0.8,2,0
			c4.5,5.7,8.7,11.6,11.7,18.3c4,8.6-2.1,18.1-10.9,19.2C66.2,109.9,65.6,109.9,65,109.9z M65.1,74.4c-4.4,6-8.7,11.6-11.3,18.3
			c-0.3,0.8-0.5,1.6-0.6,2.4c-0.7,7.8,6.8,14.2,14.5,12.3c6.5-1.6,11.2-8.9,8.1-15.7c-1.3-2.7-2.6-5.3-4.2-7.8
			C69.6,80.8,67.4,77.8,65.1,74.4z"/>
		<path class="st1" d="M65.4,104.1c-4.6-0.2-8.5-4.2-8.7-8.8c0-0.7,0.1-1.4,1-1.5c0.9-0.1,1.1,0.5,1.2,1.3c0.5,4.2,2.8,6.4,6.9,6.8
			c0.7,0.1,1.2,0.4,1.3,1.2C67.1,103.9,66.5,104.2,65.4,104.1z"/>
	</g>
	<path class="st2" d="M97.7,36.7H32.3c-4.1,0-7.5,2.9-7.5,6.5v0c0,3.6,3.4,6.5,7.5,6.5h24.6v10h-3c-1.5,0-2.8,1.1-2.8,2.4v0
		c0,1.3,1.3,2.4,2.8,2.4h22.3c1.5,0,2.8-1.1,2.8-2.4v0c0-1.3-1.3-2.4-2.8-2.4h-3v-10h24.6c4.1,0,7.5-2.9,7.5-6.5v0
		C105.2,39.6,101.8,36.7,97.7,36.7z"/>
</g>
</svg>
