<?xml version="1.0" encoding="utf-8"?>
<!-- Generator: Adobe Illustrator 19.2.1, SVG Export Plug-In . SVG Version: 6.00 Build 0)  -->
<svg version="1.1" id="Layer_1" xmlns="http://www.w3.org/2000/svg" xmlns:xlink="http://www.w3.org/1999/xlink" x="0px" y="0px"
	 viewBox="0 0 130 130" style="enable-background:new 0 0 130 130;" xml:space="preserve">
<style type="text/css">
	.st0{fill:#FFFFFF;}
	.st1{fill:none;stroke:#FFFFFF;stroke-width:5;stroke-miterlimit:10;}
	.st2{fill:#6FC59F;stroke:#6FC5A0;stroke-width:2;stroke-miterlimit:10;}
</style>
<g>
	<path class="st0" d="M25.7,49.4c0,0,31.7-49,78.1,12.2l-3.6,2.7c0,0-34.4-54.7-69.4-15.1c0,0,30.3,38.6,70.2-14.2l3.3,3.1
		C104.3,38.1,64,94.8,25.7,49.4z"/>
	<circle class="st1" cx="65" cy="65" r="60.3"/>
	<circle class="st0" cx="44.9" cy="49.4" r="2.8"/>
	<path class="st2" d="M90.8,90.4c-3.2,0.1-5.4-0.9-7.4-2.1c-4.4-2.6-6.5-2.6-10.8-0.1c-5.3,3-9.8,3-15.1,0c-4.3-2.5-6.4-2.5-10.6,0
		c-5.4,3.1-9.7,3.1-15.3,0c-1.3-0.7-3.3-1.1-5-1.7c-0.8-0.3-1.3-0.8-2-1.1c0.9-0.3,2.1-0.9,2.8-0.7c2.1,0.5,4.1,1.2,6,1.9
		c1.2,0.5,2.1,1.2,3.3,1.7c2,0.7,4.1,0.6,5.9-0.3c1-0.5,1.8-1,2.7-1.5c4.3-2.4,9.2-2.4,13.5,0c0.8,0.5,1.6,1,2.5,1.4
		c2.4,1.2,5,1.2,7.5,0c8.7-4.3,9.6-4.3,18.2,0c2.6,1.3,5.2,1.2,8-0.1c2.1-1,4.4-2,6.9-2.8c0.8-0.2,2.3,0.3,3.5,0.5
		c-0.9,0.4-1.7,0.9-2.6,1.3c-1.6,0.7-3.3,1.2-4.7,2C95.9,89.6,93.9,90.5,90.8,90.4z"/>
	<path class="st2" d="M90.8,81.5c-2.8-1-5.4-1.7-7.3-2.8c-4.8-2.5-6.5-2.6-11.1,0c-5,2.9-9.6,2.9-14.6,0.1c-4.8-2.7-6.5-2.7-11.3,0
		c-4.9,2.8-9.4,2.7-14.5,0.1c-1.7-0.9-4-1.4-6-2.2c-0.6-0.2-1-0.7-1.5-1c0.7-0.3,1.7-0.9,2.1-0.8c2.4,0.6,5,1.1,6.8,2.1
		c4.9,2.6,6.7,2.7,11.3,0c4.9-2.8,9.8-2.8,14.6,0c4.5,2.6,6.6,2.6,11,0.1c5.1-2.9,10-2.9,15.1,0.1c4.1,2.4,6.3,2.3,10.6,0
		c1.8-0.9,4.1-1.6,6.4-2.2c0.6-0.2,1.9,0.4,2.8,0.7c-0.7,0.4-1.3,0.9-2.2,1.2c-1.6,0.6-3.3,1.2-4.9,1.8C96,79.6,93.7,80.4,90.8,81.5
		z"/>
	<path class="st2" d="M90.1,100.4c-2.2-0.8-4.7-1.5-6.6-2.5c-4.7-2.6-6.6-2.7-11.1-0.1c-5.2,3-9.9,3-15.1-0.1
		c-4.1-2.4-6.4-2.4-10.6,0c-5.3,3.1-9.9,3-15.3-0.1c-1.3-0.8-3.3-1.1-4.9-1.8c-0.8-0.3-1.3-0.7-1.9-1.1c0.8-0.3,1.9-0.9,2.5-0.8
		c1.9,0.3,3.7,0.8,5.4,1.4c1.1,0.4,1.9,1.1,2.9,1.6c2.6,1.3,5.1,1.3,7.7,0c0.5-0.2,0.9-0.5,1.3-0.8c5.3-3.1,10-3.1,15.3-0.1
		c4.3,2.5,6.4,2.5,10.8-0.1c5-2.9,9.8-2.9,14.8,0c4.5,2.6,6.4,2.5,11.1,0c1.7-0.9,4.2-1.5,6.5-2.1c0.5-0.1,1.7,0.5,2.5,0.7
		c-0.6,0.4-1.1,0.9-1.8,1.2c-1.7,0.7-3.8,1.2-5.4,2c-2.2,1.1-4.3,2.1-7.5,2C90.4,100.1,90.3,100.3,90.1,100.4z"/>
</g>
</svg>
